<svg width="79" height="79" viewBox="0 0 79 79" fill="none" xmlns="http://www.w3.org/2000/svg">
<path d="M9.14131 69.606H4.13731L3.30931 72H0.663313L5.18131 59.418H8.11531L12.6333 72H9.96931L9.14131 69.606ZM8.45731 67.59L6.63931 62.334L4.82131 67.59H8.45731ZM16.8421 59.436V72H14.3221V59.436H16.8421ZM37.3189 59.436V72H34.7989V63.828L31.4329 72H29.5249L26.1409 63.828V72H23.6209V59.436H26.4829L30.4789 68.778L34.4749 59.436H37.3189ZM39.1624 66.978C39.1624 65.97 39.3604 65.076 39.7564 64.296C40.1644 63.516 40.7104 62.916 41.3944 62.496C42.0904 62.076 42.8644 61.866 43.7164 61.866C44.4604 61.866 45.1084 62.016 45.6604 62.316C46.2244 62.616 46.6744 62.994 47.0104 63.45V62.028H49.5484V72H47.0104V70.542C46.6864 71.01 46.2364 71.4 45.6604 71.712C45.0964 72.012 44.4424 72.162 43.6984 72.162C42.8584 72.162 42.0904 71.946 41.3944 71.514C40.7104 71.082 40.1644 70.476 39.7564 69.696C39.3604 68.904 39.1624 67.998 39.1624 66.978ZM47.0104 67.014C47.0104 66.402 46.8904 65.88 46.6504 65.448C46.4104 65.004 46.0864 64.668 45.6784 64.44C45.2704 64.2 44.8324 64.08 44.3644 64.08C43.8964 64.08 43.4644 64.194 43.0684 64.422C42.6724 64.65 42.3484 64.986 42.0964 65.43C41.8564 65.862 41.7364 66.378 41.7364 66.978C41.7364 67.578 41.8564 68.106 42.0964 68.562C42.3484 69.006 42.6724 69.348 43.0684 69.588C43.4764 69.828 43.9084 69.948 44.3644 69.948C44.8324 69.948 45.2704 69.834 45.6784 69.606C46.0864 69.366 46.4104 69.03 46.6504 68.598C46.8904 68.154 47.0104 67.626 47.0104 67.014ZM55.9156 61.866C56.6596 61.866 57.3136 62.016 57.8776 62.316C58.4416 62.604 58.8856 62.982 59.2096 63.45V62.028H61.7476V72.072C61.7476 72.996 61.5616 73.818 61.1896 74.538C60.8176 75.27 60.2596 75.846 59.5156 76.266C58.7716 76.698 57.8716 76.914 56.8156 76.914C55.3996 76.914 54.2356 76.584 53.3236 75.924C52.4236 75.264 51.9136 74.364 51.7936 73.224H54.2956C54.4276 73.68 54.7096 74.04 55.1416 74.304C55.5856 74.58 56.1196 74.718 56.7436 74.718C57.4756 74.718 58.0696 74.496 58.5256 74.052C58.9816 73.62 59.2096 72.96 59.2096 72.072V70.524C58.8856 70.992 58.4356 71.382 57.8596 71.694C57.2956 72.006 56.6476 72.162 55.9156 72.162C55.0756 72.162 54.3076 71.946 53.6116 71.514C52.9156 71.082 52.3636 70.476 51.9556 69.696C51.5596 68.904 51.3616 67.998 51.3616 66.978C51.3616 65.97 51.5596 65.076 51.9556 64.296C52.3636 63.516 52.9096 62.916 53.5936 62.496C54.2896 62.076 55.0636 61.866 55.9156 61.866ZM59.2096 67.014C59.2096 66.402 59.0896 65.88 58.8496 65.448C58.6096 65.004 58.2856 64.668 57.8776 64.44C57.4696 64.2 57.0316 64.08 56.5636 64.08C56.0956 64.08 55.6636 64.194 55.2676 64.422C54.8716 64.65 54.5476 64.986 54.2956 65.43C54.0556 65.862 53.9356 66.378 53.9356 66.978C53.9356 67.578 54.0556 68.106 54.2956 68.562C54.5476 69.006 54.8716 69.348 55.2676 69.588C55.6756 69.828 56.1076 69.948 56.5636 69.948C57.0316 69.948 57.4696 69.834 57.8776 69.606C58.2856 69.366 58.6096 69.03 58.8496 68.598C59.0896 68.154 59.2096 67.626 59.2096 67.014ZM65.4868 60.84C65.0428 60.84 64.6708 60.702 64.3708 60.426C64.0828 60.138 63.9388 59.784 63.9388 59.364C63.9388 58.944 64.0828 58.596 64.3708 58.32C64.6708 58.032 65.0428 57.888 65.4868 57.888C65.9308 57.888 66.2968 58.032 66.5848 58.32C66.8848 58.596 67.0348 58.944 67.0348 59.364C67.0348 59.784 66.8848 60.138 66.5848 60.426C66.2968 60.702 65.9308 60.84 65.4868 60.84ZM66.7288 62.028V72H64.2088V62.028H66.7288ZM68.5706 67.014C68.5706 65.982 68.7806 65.082 69.2006 64.314C69.6206 63.534 70.2026 62.934 70.9466 62.514C71.6906 62.082 72.5426 61.866 73.5026 61.866C74.7386 61.866 75.7586 62.178 76.5626 62.802C77.3786 63.414 77.9246 64.278 78.2006 65.394H75.4826C75.3386 64.962 75.0926 64.626 74.7446 64.386C74.4086 64.134 73.9886 64.008 73.4846 64.008C72.7646 64.008 72.1946 64.272 71.7746 64.8C71.3546 65.316 71.1446 66.054 71.1446 67.014C71.1446 67.962 71.3546 68.7 71.7746 69.228C72.1946 69.744 72.7646 70.002 73.4846 70.002C74.5046 70.002 75.1706 69.546 75.4826 68.634H78.2006C77.9246 69.714 77.3786 70.572 76.5626 71.208C75.7466 71.844 74.7266 72.162 73.5026 72.162C72.5426 72.162 71.6906 71.952 70.9466 71.532C70.2026 71.1 69.6206 70.5 69.2006 69.732C68.7806 68.952 68.5706 68.046 68.5706 67.014Z" fill="#003050"/>
<g clip-path="url(#clip0_13_50)">
<path d="M26.9749 19.1562C28.2395 19.7333 29.0416 21.5292 29.1416 24.0354C29.2103 25.6958 29.0166 26.95 28.5103 28.0458C27.3353 30.5646 25.2228 30.6542 24.0041 28.2375C23.4832 27.2208 23.2582 26.1021 23.2582 24.5333C23.2707 22.8604 23.4499 21.8792 23.9812 20.7937C24.7374 19.2479 25.8457 18.6375 26.9749 19.1562ZM47.3249 19.3146C48.5562 20.1271 49.4041 22.7042 49.2332 25.0979C49.0416 27.9542 47.777 30.0104 46.2416 30.0104C45.3937 30.0104 44.5249 29.2646 43.9603 28.0458C43.0228 26.0125 43.0791 22.6021 44.0957 20.6146C44.852 19.1229 46.2291 18.5708 47.3249 19.3146ZM40.8082 0.0604057C41.2728 0.127072 41.3395 0.185406 41.5999 0.668739C41.9832 1.36874 42.2207 1.61874 42.9332 2.08124C43.5874 2.49791 43.5874 2.52082 43.3624 3.59374C43.1687 4.49791 43.2812 5.38957 43.6999 6.19166C44.3103 7.39999 46.0145 8.66457 47.5749 9.0604C48.1603 9.21874 48.3978 9.22915 49.1103 9.10624C49.5728 9.03749 50.0249 9.00416 50.1145 9.03749C50.2166 9.08332 50.4541 9.45415 50.6562 9.8729C51.1082 10.8458 52.2395 12.0083 53.1416 12.4271C54.6103 13.1146 56.2041 13.0812 57.7374 12.3229C58.1666 12.1104 58.5957 11.975 58.6978 12.0083C58.7874 12.0417 59.0478 12.3 59.2728 12.5729C59.4999 12.8562 59.952 13.2167 60.2687 13.375C60.7874 13.6458 60.9791 13.6792 61.8374 13.6667C62.5145 13.6562 62.8541 13.6917 62.9332 13.7917C63.2603 14.1875 64.1624 18.3771 64.5478 21.2583C64.8874 23.8437 64.9207 29.6271 64.6041 32.1542C64.1874 35.5792 63.5666 38.5146 62.7082 41.1562C62.0978 43.0312 61.5562 44.2625 60.4374 46.2729C58.7437 49.3229 58.0874 50 56.8457 50C56.4995 50.0009 56.1545 49.959 55.8187 49.875C55.0832 49.6271 53.9541 48.7583 52.2145 47.1083C50.1603 45.1667 49.2895 44.4896 48.2062 43.9583C46.8853 43.3021 45.5853 43.2458 44.4562 43.8C44.1853 43.9354 43.4187 44.5458 42.7749 45.1667C41.4207 46.4542 40.8999 46.7354 39.7124 46.8146C38.2457 46.9062 37.4207 46.5333 35.1166 44.7479C34.1353 43.9917 33.4124 43.6521 32.6103 43.5854C31.6395 43.5062 30.927 43.7542 29.3582 44.7042C27.8103 45.6417 26.9853 45.9333 25.9124 45.9333C23.677 45.9333 21.7332 44.5583 19.7353 41.5646C17.5103 38.2083 15.8832 33.5208 15.3541 28.8812C15.1499 27.1312 15.1166 23.5958 15.2853 21.8667C16.177 12.9792 20.4812 6.17916 27.427 2.71457C29.5937 1.63124 31.977 0.872906 34.6978 0.410406C36.7312 0.0708224 39.7249 -0.0979276 40.8082 0.0604057ZM36.1437 3.14374C30.9166 3.66249 25.8332 6.48541 22.7728 10.5521C19.5874 14.7875 17.8145 21.8 18.4603 27.6146C18.877 31.4687 20.4687 35.8375 22.6041 39.0458C23.6874 40.6708 24.1041 41.1229 24.8624 41.4958C26.0145 42.0604 27.1999 41.8583 28.6687 40.8521C29.9791 39.9479 31.3353 39.5542 32.7895 39.6333C34.2687 39.7229 34.8353 40.0167 37.0707 41.925C38.3916 43.0542 39.5332 43.1792 40.8082 42.3312C41.0916 42.1396 41.7249 41.6542 42.2207 41.2479C43.8124 39.9271 45.0332 39.4625 46.9645 39.4521C49.3812 39.4396 50.9499 40.3437 53.1749 43.0562C54.9832 45.2437 55.6832 45.6979 56.6749 45.325C58.302 44.7042 59.9395 40.9875 61.0124 35.5C62.4353 28.25 62.1645 21.9125 60.2791 18.0625C59.6687 16.7958 58.9353 15.9833 58.2457 15.7812C57.8166 15.6562 57.6832 15.6667 56.7791 15.9604C55.9082 16.2437 55.6041 16.2896 54.4749 16.2896C53.4124 16.2896 53.0395 16.2312 52.4082 16.0187C51.1999 15.6104 50.6582 15.1146 49.3124 13.1937C48.6916 12.3021 48.1499 12.0083 46.6812 11.7146C43.9728 11.1937 42.8645 10.7208 41.9041 9.68124C40.9999 8.7104 40.4249 7.41041 40.0082 5.40207C39.8937 4.81457 39.6916 4.17082 39.5666 3.96666C39.1041 3.22291 37.9853 2.94999 36.1437 3.14374Z" fill="#003050"/>
</g>
<defs>
<clipPath id="clip0_13_50">
<rect width="50" height="50" fill="white" transform="translate(15)"/>
</clipPath>
</defs>
</svg>
