<svg width="20" height="20" viewBox="0 0 20 20" fill="none" xmlns="http://www.w3.org/2000/svg">
<g id="material-symbols:arrow-outward-rounded">
<path id="Vector" d="M13.3333 6.99999L5.9375 14.4167C5.77083 14.5833 5.57278 14.6667 5.34333 14.6667C5.11389 14.6667 4.91611 14.5833 4.75 14.4167C4.58333 14.25 4.5 14.0519 4.5 13.8225C4.5 13.593 4.58333 13.3953 4.75 13.2292L12.1667 5.83333H5.83333C5.59722 5.83333 5.39917 5.75333 5.23917 5.59333C5.07917 5.43333 4.99944 5.23555 5 4.99999C5 4.76388 5.08 4.56583 5.24 4.40583C5.4 4.24583 5.59778 4.1661 5.83333 4.16666H14.1667C14.4028 4.16666 14.6008 4.24666 14.7608 4.40666C14.9208 4.56666 15.0006 4.76444 15 4.99999V13.3333C15 13.5694 14.92 13.7675 14.76 13.9275C14.6 14.0875 14.4022 14.1672 14.1667 14.1667C13.9306 14.1667 13.7325 14.0867 13.5725 13.9267C13.4125 13.7667 13.3328 13.5689 13.3333 13.3333V6.99999Z" fill="white"/>
</g>
</svg>
