<svg width="72" height="72" viewBox="0 0 72 72" fill="none" xmlns="http://www.w3.org/2000/svg">
<circle cx="36" cy="36" r="36" fill="#9E8600"/>
<path d="M56.2501 35.5821C56.2483 33.7939 55.7402 32.0428 54.7845 30.5314C53.8289 29.0199 52.4647 27.81 50.8501 27.0417V26.8071C50.8485 25.0677 50.287 23.3749 49.2487 21.9794C48.2104 20.5838 46.7505 19.5595 45.0848 19.0581C43.4192 18.5568 41.6365 18.6049 40.0003 19.1954C38.3642 19.7859 36.9616 20.8874 36 22.3369C35.0385 20.8874 33.6359 19.7859 31.9998 19.1954C30.3636 18.6049 28.5809 18.5568 26.9152 19.0581C25.2496 19.5595 23.7897 20.5838 22.7514 21.9794C21.7131 23.3749 21.1516 25.0677 21.15 26.8071V27.0417C19.534 27.8079 18.1686 29.0171 17.2124 30.5286C16.2563 32.0401 15.7488 33.7919 15.7488 35.5804C15.7488 37.3689 16.2563 39.1207 17.2124 40.6322C18.1686 42.1438 19.534 43.3529 21.15 44.1192V44.3571C21.1516 46.0965 21.7131 47.7893 22.7514 49.1849C23.7897 50.5804 25.2496 51.6047 26.9152 52.1061C28.5809 52.6074 30.3636 52.5593 31.9998 51.9688C33.6359 51.3783 35.0385 50.2768 36 48.8273C36.9616 50.2768 38.3642 51.3783 40.0003 51.9688C41.6365 52.5593 43.4192 52.6074 45.0848 52.1061C46.7505 51.6047 48.2104 50.5804 49.2487 49.1849C50.287 47.7893 50.8485 46.0965 50.8501 44.3571V44.1192C52.4645 43.3514 53.8285 42.1421 54.7841 40.6312C55.7398 39.1204 56.248 37.3698 56.2501 35.5821ZM29.25 49.7571C27.9185 49.7569 26.634 49.2648 25.6432 48.3752C24.6524 47.4857 24.0252 46.2614 23.8821 44.9376C24.3187 44.9999 24.7591 45.0315 25.2 45.0321H26.55C26.9081 45.0321 27.2515 44.8899 27.5046 44.6367C27.7578 44.3835 27.9 44.0401 27.9 43.6821C27.9 43.3241 27.7578 42.9807 27.5046 42.7275C27.2515 42.4743 26.9081 42.3321 26.55 42.3321H25.2C23.6063 42.334 22.0633 41.7718 20.8442 40.7453C19.6252 39.7187 18.8087 38.2938 18.5393 36.723C18.2699 35.1522 18.565 33.5367 19.3724 32.1626C20.1798 30.7885 21.4473 29.7444 22.9506 29.2152C23.2136 29.122 23.4414 28.9497 23.6024 28.7218C23.7635 28.494 23.85 28.2218 23.85 27.9428V26.8071C23.85 25.3749 24.419 24.0014 25.4317 22.9887C26.4444 21.976 27.8179 21.4071 29.25 21.4071C30.6822 21.4071 32.0557 21.976 33.0684 22.9887C34.0811 24.0014 34.65 25.3749 34.65 26.8071V38.326C33.1676 36.9927 31.2439 36.2556 29.25 36.2571C28.892 36.2571 28.5486 36.3993 28.2955 36.6525C28.0423 36.9057 27.9 37.2491 27.9 37.6071C27.9 37.9651 28.0423 38.3085 28.2955 38.5617C28.5486 38.8149 28.892 38.9571 29.25 38.9571C30.6822 38.9571 32.0557 39.526 33.0684 40.5387C34.0811 41.5514 34.65 42.9249 34.65 44.3571C34.65 45.7893 34.0811 47.1628 33.0684 48.1755C32.0557 49.1882 30.6822 49.7571 29.25 49.7571ZM46.8001 42.3321H45.4501C45.092 42.3321 44.7486 42.4743 44.4955 42.7275C44.2423 42.9807 44.1001 43.3241 44.1001 43.6821C44.1001 44.0401 44.2423 44.3835 44.4955 44.6367C44.7486 44.8899 45.092 45.0321 45.4501 45.0321H46.8001C47.241 45.0315 47.6814 44.9999 48.118 44.9376C48.0058 45.9749 47.5956 46.9574 46.9369 47.7665C46.2782 48.5755 45.3992 49.1765 44.4063 49.4966C43.4133 49.8167 42.3489 49.8424 41.3416 49.5704C40.3344 49.2984 39.4275 48.7405 38.7306 47.9641C38.0338 47.1877 37.5767 46.226 37.4147 45.1954C37.2528 44.1648 37.3929 43.1093 37.818 42.1565C38.2432 41.2038 38.9352 40.3946 39.8105 39.8268C40.6858 39.259 41.7068 38.957 42.7501 38.9571C43.1081 38.9571 43.4515 38.8149 43.7046 38.5617C43.9578 38.3085 44.1001 37.9651 44.1001 37.6071C44.1001 37.2491 43.9578 36.9057 43.7046 36.6525C43.4515 36.3993 43.1081 36.2571 42.7501 36.2571C40.7562 36.2556 38.8325 36.9927 37.3501 38.326V26.8071C37.3501 25.3749 37.919 24.0014 38.9317 22.9887C39.9444 21.976 41.3179 21.4071 42.7501 21.4071C44.1822 21.4071 45.5557 21.976 46.5684 22.9887C47.5811 24.0014 48.1501 25.3749 48.1501 26.8071V27.9428C48.1501 28.2218 48.2366 28.494 48.3977 28.7218C48.5587 28.9497 48.7865 29.122 49.0495 29.2152C50.5528 29.7444 51.8203 30.7885 52.6277 32.1626C53.4351 33.5367 53.7302 35.1522 53.4608 36.723C53.1914 38.2938 52.3749 39.7187 51.1559 40.7453C49.9368 41.7718 48.3938 42.334 46.8001 42.3321ZM49.5001 33.5571C49.5001 33.9151 49.3578 34.2585 49.1046 34.5117C48.8515 34.7649 48.5081 34.9071 48.1501 34.9071H47.4751C45.8639 34.9071 44.3187 34.2671 43.1794 33.1278C42.0401 31.9885 41.4001 30.4433 41.4001 28.8321V28.1571C41.4001 27.7991 41.5423 27.4557 41.7955 27.2025C42.0486 26.9493 42.392 26.8071 42.7501 26.8071C43.1081 26.8071 43.4515 26.9493 43.7046 27.2025C43.9578 27.4557 44.1001 27.7991 44.1001 28.1571V28.8321C44.1001 29.7272 44.4556 30.5857 45.0886 31.2186C45.7215 31.8515 46.5799 32.2071 47.4751 32.2071H48.1501C48.5081 32.2071 48.8515 32.3493 49.1046 32.6025C49.3578 32.8557 49.5001 33.1991 49.5001 33.5571ZM24.525 34.9071H23.85C23.492 34.9071 23.1486 34.7649 22.8955 34.5117C22.6423 34.2585 22.5 33.9151 22.5 33.5571C22.5 33.1991 22.6423 32.8557 22.8955 32.6025C23.1486 32.3493 23.492 32.2071 23.85 32.2071H24.525C25.4202 32.2071 26.2786 31.8515 26.9115 31.2186C27.5445 30.5857 27.9 29.7272 27.9 28.8321V28.1571C27.9 27.7991 28.0423 27.4557 28.2955 27.2025C28.5486 26.9493 28.892 26.8071 29.25 26.8071C29.6081 26.8071 29.9515 26.9493 30.2046 27.2025C30.4578 27.4557 30.6 27.7991 30.6 28.1571V28.8321C30.6 30.4433 29.96 31.9885 28.8207 33.1278C27.6814 34.2671 26.1362 34.9071 24.525 34.9071Z" fill="white"/>
</svg>
