<svg width="89" height="79" viewBox="0 0 89 79" fill="none" xmlns="http://www.w3.org/2000/svg">
<path d="M24.1667 25C24.1667 15.1792 24.1667 10.2688 27.2167 7.21669C30.2709 4.16669 35.1792 4.16669 45.0001 4.16669C54.8209 4.16669 59.7313 4.16669 62.7813 7.21669C65.8334 10.2709 65.8334 15.1792 65.8334 25C65.8334 34.8209 65.8334 39.7313 62.7813 42.7813C59.7334 45.8334 54.8209 45.8334 45.0001 45.8334C35.1792 45.8334 30.2688 45.8334 27.2167 42.7813C24.1667 39.7334 24.1667 34.8209 24.1667 25Z" stroke="#003B8C" stroke-width="4"/>
<path d="M41.0938 18.4896C41.0938 17.8055 41.2736 17.1334 41.615 16.5406C41.9564 15.9478 42.4475 15.4551 43.0391 15.1117C43.6308 14.7683 44.3022 14.5863 44.9863 14.5839C45.6704 14.5815 46.3431 14.7588 46.9371 15.098C47.5312 15.4373 48.0257 15.9266 48.3713 16.517C48.7168 17.1073 48.9013 17.7781 48.9062 18.4622C48.911 19.1463 48.7362 19.8196 48.3991 20.4149C48.062 21.0102 47.5745 21.5065 46.9854 21.8542C45.9958 22.4396 45 23.3292 45 24.4792V27.0833" stroke="#003B8C" stroke-width="4" stroke-linecap="round"/>
<path d="M45.0001 35.4167C46.1507 35.4167 47.0834 34.4839 47.0834 33.3333C47.0834 32.1827 46.1507 31.25 45.0001 31.25C43.8495 31.25 42.9167 32.1827 42.9167 33.3333C42.9167 34.4839 43.8495 35.4167 45.0001 35.4167Z" fill="#003B8C"/>
<path d="M10.1533 59.436V61.47H6.80533V72H4.28533V61.47H0.937328V59.436H10.1533ZM11.344 66.978C11.344 65.97 11.542 65.076 11.938 64.296C12.346 63.516 12.892 62.916 13.576 62.496C14.272 62.076 15.046 61.866 15.898 61.866C16.642 61.866 17.29 62.016 17.842 62.316C18.406 62.616 18.856 62.994 19.192 63.45V62.028H21.73V72H19.192V70.542C18.868 71.01 18.418 71.4 17.842 71.712C17.278 72.012 16.624 72.162 15.88 72.162C15.04 72.162 14.272 71.946 13.576 71.514C12.892 71.082 12.346 70.476 11.938 69.696C11.542 68.904 11.344 67.998 11.344 66.978ZM19.192 67.014C19.192 66.402 19.072 65.88 18.832 65.448C18.592 65.004 18.268 64.668 17.86 64.44C17.452 64.2 17.014 64.08 16.546 64.08C16.078 64.08 15.646 64.194 15.25 64.422C14.854 64.65 14.53 64.986 14.278 65.43C14.038 65.862 13.918 66.378 13.918 66.978C13.918 67.578 14.038 68.106 14.278 68.562C14.53 69.006 14.854 69.348 15.25 69.588C15.658 69.828 16.09 69.948 16.546 69.948C17.014 69.948 17.452 69.834 17.86 69.606C18.268 69.366 18.592 69.03 18.832 68.598C19.072 68.154 19.192 67.626 19.192 67.014ZM30.0952 72L26.7112 67.752V72H24.1912V58.68H26.7112V66.258L30.0592 62.028H33.3352L28.9432 67.032L33.3712 72H30.0952ZM43.9729 66.798C43.9729 67.158 43.9489 67.482 43.9009 67.77H36.6109C36.6709 68.49 36.9229 69.054 37.3669 69.462C37.8109 69.87 38.3569 70.074 39.0049 70.074C39.9409 70.074 40.6069 69.672 41.0029 68.868H43.7209C43.4329 69.828 42.8809 70.62 42.0649 71.244C41.2489 71.856 40.2469 72.162 39.0589 72.162C38.0989 72.162 37.2349 71.952 36.4669 71.532C35.7109 71.1 35.1169 70.494 34.6849 69.714C34.2649 68.934 34.0549 68.034 34.0549 67.014C34.0549 65.982 34.2649 65.076 34.6849 64.296C35.1049 63.516 35.6929 62.916 36.4489 62.496C37.2049 62.076 38.0749 61.866 39.0589 61.866C40.0069 61.866 40.8529 62.07 41.5969 62.478C42.3529 62.886 42.9349 63.468 43.3429 64.224C43.7629 64.968 43.9729 65.826 43.9729 66.798ZM41.3629 66.078C41.3509 65.43 41.1169 64.914 40.6609 64.53C40.2049 64.134 39.6469 63.936 38.9869 63.936C38.3629 63.936 37.8349 64.128 37.4029 64.512C36.9829 64.884 36.7249 65.406 36.6289 66.078H41.3629ZM59.4614 74.214L57.5534 71.928C57.0254 72.06 56.4854 72.126 55.9334 72.126C54.7574 72.126 53.6774 71.85 52.6934 71.298C51.7094 70.746 50.9294 69.984 50.3534 69.012C49.7774 68.028 49.4894 66.918 49.4894 65.682C49.4894 64.458 49.7774 63.36 50.3534 62.388C50.9294 61.404 51.7094 60.636 52.6934 60.084C53.6774 59.532 54.7574 59.256 55.9334 59.256C57.1214 59.256 58.2014 59.532 59.1734 60.084C60.1574 60.636 60.9314 61.404 61.4954 62.388C62.0714 63.36 62.3594 64.458 62.3594 65.682C62.3594 66.798 62.1194 67.818 61.6394 68.742C61.1714 69.654 60.5294 70.398 59.7134 70.974L62.5934 74.214H59.4614ZM52.0814 65.682C52.0814 66.522 52.2434 67.26 52.5674 67.896C52.8914 68.532 53.3414 69.024 53.9174 69.372C54.5054 69.708 55.1774 69.876 55.9334 69.876C56.6894 69.876 57.3554 69.708 57.9314 69.372C58.5074 69.024 58.9574 68.532 59.2814 67.896C59.6054 67.26 59.7674 66.522 59.7674 65.682C59.7674 64.842 59.6054 64.11 59.2814 63.486C58.9574 62.85 58.5074 62.364 57.9314 62.028C57.3554 61.692 56.6894 61.524 55.9334 61.524C55.1774 61.524 54.5054 61.692 53.9174 62.028C53.3414 62.364 52.8914 62.85 52.5674 63.486C52.2434 64.11 52.0814 64.842 52.0814 65.682ZM73.6833 62.028V72H71.1453V70.74C70.8213 71.172 70.3953 71.514 69.8673 71.766C69.3513 72.006 68.7873 72.126 68.1753 72.126C67.3953 72.126 66.7053 71.964 66.1053 71.64C65.5053 71.304 65.0313 70.818 64.6833 70.182C64.3473 69.534 64.1793 68.766 64.1793 67.878V62.028H66.6993V67.518C66.6993 68.31 66.8973 68.922 67.2933 69.354C67.6893 69.774 68.2293 69.984 68.9133 69.984C69.6093 69.984 70.1553 69.774 70.5513 69.354C70.9473 68.922 71.1453 68.31 71.1453 67.518V62.028H73.6833ZM77.4477 60.84C77.0037 60.84 76.6317 60.702 76.3317 60.426C76.0437 60.138 75.8997 59.784 75.8997 59.364C75.8997 58.944 76.0437 58.596 76.3317 58.32C76.6317 58.032 77.0037 57.888 77.4477 57.888C77.8917 57.888 78.2577 58.032 78.5457 58.32C78.8457 58.596 78.9957 58.944 78.9957 59.364C78.9957 59.784 78.8457 60.138 78.5457 60.426C78.2577 60.702 77.8917 60.84 77.4477 60.84ZM78.6897 62.028V72H76.1697V62.028H78.6897ZM83.4835 69.93H87.9295V72H80.6215V69.966L84.9775 64.098H80.6395V62.028H87.8755V64.062L83.4835 69.93Z" fill="#003B8C"/>
</svg>
