<svg width="40" height="40" viewBox="0 0 40 40" fill="none" xmlns="http://www.w3.org/2000/svg">
<g id="fluent:settings-32-filled">
<path id="Vector" d="M36.04 23.09C36.3503 23.3185 36.5817 23.6379 36.702 24.004C36.8223 24.3701 36.8255 24.7645 36.7112 25.1325C35.9189 27.6657 34.5711 29.9901 32.7662 31.9363C32.5057 32.2157 32.1649 32.4074 31.7908 32.4851C31.4167 32.5627 31.0278 32.5225 30.6775 32.37L28.2337 31.2975C27.9667 31.1787 27.6757 31.1239 27.3837 31.1375C27.0928 31.1544 26.8101 31.2401 26.5587 31.3875C26.307 31.5332 26.0934 31.7365 25.9354 31.9807C25.7775 32.225 25.6796 32.5032 25.65 32.7925L25.3562 35.455C25.3139 35.834 25.1555 36.1907 24.9026 36.4762C24.6498 36.7618 24.3149 36.9622 23.9437 37.05C21.3487 37.6688 18.6437 37.6688 16.0487 37.05C15.6802 36.9608 15.3478 36.7609 15.0964 36.477C14.845 36.1932 14.6865 35.8391 14.6425 35.4625L14.3487 32.805C14.298 32.3521 14.0821 31.9338 13.7425 31.63C13.477 31.3958 13.1506 31.2416 12.8011 31.1852C12.4515 31.1288 12.0932 31.1725 11.7675 31.3113L9.32375 32.385C8.97446 32.5375 8.58654 32.5781 8.21324 32.5014C7.83993 32.4246 7.49953 32.2342 7.23875 31.9563C5.4309 30.0081 4.08134 27.6805 3.28875 25.1438C3.17511 24.7762 3.17854 24.3825 3.29858 24.017C3.41862 23.6515 3.64932 23.3323 3.95875 23.1038L6.115 21.51C6.35061 21.3372 6.54221 21.1114 6.67428 20.8508C6.80635 20.5902 6.87518 20.3022 6.87518 20.01C6.87518 19.7178 6.80635 19.4298 6.67428 19.1692C6.54221 18.9086 6.35061 18.6828 6.115 18.51L3.95875 16.9188C3.65098 16.6914 3.42127 16.3742 3.30128 16.0109C3.18129 15.6475 3.17691 15.2559 3.28875 14.89C4.08112 12.3552 5.43029 10.0297 7.2375 8.08375C7.4125 7.895 7.625 7.745 7.8625 7.645C8.09384 7.54702 8.34251 7.49653 8.59375 7.49653C8.84498 7.49653 9.09366 7.54702 9.325 7.645L11.7587 8.7175C12.0265 8.83251 12.3175 8.88322 12.6083 8.86557C12.8992 8.84792 13.1819 8.76241 13.4338 8.61587C13.6856 8.46934 13.8997 8.26586 14.0588 8.02173C14.2179 7.7776 14.3176 7.4996 14.35 7.21L14.645 4.5575C14.6879 4.17449 14.8492 3.8144 15.1064 3.52738C15.3636 3.24036 15.704 3.04072 16.08 2.95625C17.3719 2.67123 18.6896 2.5196 20.0125 2.50375C21.3275 2.51875 22.6375 2.67 23.9212 2.95625C24.2981 3.04013 24.6392 3.24012 24.8964 3.52805C25.1536 3.81598 25.314 4.17735 25.355 4.56125L25.65 7.21125C25.6813 7.50041 25.7801 7.77816 25.9386 8.02204C26.0971 8.26591 26.3107 8.46908 26.5623 8.6151C26.8138 8.76113 27.0962 8.84592 27.3865 8.86263C27.6769 8.87933 27.9671 8.82747 28.2337 8.71125L30.6662 7.64C31.017 7.48737 31.4064 7.44701 31.7811 7.52444C32.1557 7.60187 32.4972 7.79331 32.7587 8.0725C34.5649 10.0165 35.9132 12.3399 36.705 14.8725C36.8195 15.2397 36.8163 15.6335 36.6959 15.9988C36.5756 16.3642 36.3441 16.6827 36.0337 16.91L33.8837 18.5013C33.6472 18.6725 33.4545 18.8972 33.3215 19.1572C33.1885 19.4171 33.1189 19.7048 33.1184 19.9969C33.1179 20.2889 33.1865 20.5768 33.3187 20.8372C33.4508 21.0976 33.6428 21.323 33.8787 21.495L36.04 23.09ZM20 25C21.3261 25 22.5978 24.4732 23.5355 23.5355C24.4732 22.5979 25 21.3261 25 20C25 18.6739 24.4732 17.4022 23.5355 16.4645C22.5978 15.5268 21.3261 15 20 15C18.6739 15 17.4021 15.5268 16.4645 16.4645C15.5268 17.4022 15 18.6739 15 20C15 21.3261 15.5268 22.5979 16.4645 23.5355C17.4021 24.4732 18.6739 25 20 25Z" fill="#003B8C"/>
</g>
</svg>
