<svg width="57" height="58" viewBox="0 0 57 58" fill="none" xmlns="http://www.w3.org/2000/svg">
<rect width="57" height="58" rx="16" fill="#F5F7FF"/>
<path d="M42.634 31.6265C42.8978 31.8207 43.0944 32.0922 43.1967 32.4034C43.299 32.7145 43.3017 33.0498 43.2046 33.3626C42.5311 35.5158 41.3855 37.4916 39.8513 39.1458C39.6298 39.3833 39.3402 39.5463 39.0222 39.6123C38.7043 39.6783 38.3736 39.6441 38.0759 39.5145L35.9987 38.6029C35.7718 38.5019 35.5244 38.4553 35.2762 38.4669C35.0289 38.4812 34.7886 38.5541 34.575 38.6794C34.361 38.8032 34.1794 38.976 34.0451 39.1836C33.9109 39.3912 33.8277 39.6277 33.8025 39.8736L33.5528 42.1367C33.5169 42.4589 33.3822 42.7621 33.1673 43.0048C32.9524 43.2475 32.6677 43.4178 32.3522 43.4925C30.1465 44.0184 27.8472 44.0184 25.6415 43.4925C25.3282 43.4167 25.0457 43.2467 24.832 43.0055C24.6182 42.7642 24.4836 42.4632 24.4462 42.1431L24.1965 39.8842C24.1533 39.4993 23.9698 39.1437 23.6812 38.8855C23.4555 38.6864 23.178 38.5554 22.8809 38.5074C22.5838 38.4595 22.2793 38.4966 22.0024 38.6145L19.9252 39.5272C19.6283 39.6568 19.2986 39.6914 18.9813 39.6261C18.664 39.5609 18.3746 39.399 18.153 39.1628C16.6163 37.5069 15.4692 35.5284 14.7955 33.3722C14.6989 33.0598 14.7018 32.7251 14.8038 32.4144C14.9059 32.1037 15.102 31.8325 15.365 31.6382L17.1978 30.2835C17.398 30.1366 17.5609 29.9447 17.6732 29.7232C17.7854 29.5017 17.8439 29.2568 17.8439 29.0085C17.8439 28.7601 17.7854 28.5153 17.6732 28.2938C17.5609 28.0723 17.398 27.8803 17.1978 27.7335L15.365 26.3809C15.1034 26.1877 14.9081 25.9181 14.8061 25.6092C14.7041 25.3004 14.7004 24.9675 14.7955 24.6565C15.469 22.5019 16.6158 20.5253 18.1519 18.8712C18.3007 18.7107 18.4813 18.5832 18.6832 18.4982C18.8798 18.415 19.0912 18.372 19.3047 18.372C19.5183 18.372 19.7296 18.415 19.9263 18.4982L21.995 19.4099C22.2225 19.5076 22.4699 19.5507 22.7171 19.5357C22.9643 19.5207 23.2046 19.448 23.4187 19.3235C23.6328 19.1989 23.8148 19.026 23.95 18.8185C24.0853 18.6109 24.17 18.3746 24.1975 18.1285L24.4483 15.8739C24.4847 15.5483 24.6218 15.2422 24.8405 14.9983C25.0591 14.7543 25.3484 14.5846 25.668 14.5128C26.7661 14.2705 27.8862 14.1416 29.0107 14.1282C30.1284 14.1409 31.2419 14.2695 32.3331 14.5128C32.6534 14.5841 32.9433 14.7541 33.162 14.9988C33.3806 15.2436 33.5169 15.5507 33.5518 15.877L33.8025 18.1295C33.8291 18.3753 33.9132 18.6114 34.0479 18.8187C34.1826 19.026 34.3642 19.1987 34.578 19.3228C34.7918 19.4469 35.0318 19.519 35.2786 19.5332C35.5254 19.5474 35.7721 19.5033 35.9987 19.4045L38.0663 18.494C38.3645 18.3642 38.6955 18.3299 39.0139 18.3958C39.3324 18.4616 39.6227 18.6243 39.845 18.8616C41.3802 20.514 42.5263 22.4889 43.1993 24.6416C43.2966 24.9537 43.2939 25.2885 43.1916 25.599C43.0893 25.9095 42.8925 26.1803 42.6287 26.3735L40.8012 27.726C40.6001 27.8716 40.4364 28.0626 40.3233 28.2836C40.2102 28.5045 40.1511 28.7491 40.1507 28.9973C40.1502 29.2455 40.2086 29.4903 40.3209 29.7116C40.4333 29.9329 40.5964 30.1245 40.797 30.2707L42.634 31.6265ZM29 33.25C30.1272 33.25 31.2082 32.8022 32.0052 32.0052C32.8023 31.2082 33.25 30.1272 33.25 29C33.25 27.8728 32.8023 26.7918 32.0052 25.9948C31.2082 25.1978 30.1272 24.75 29 24.75C27.8729 24.75 26.7919 25.1978 25.9948 25.9948C25.1978 26.7918 24.75 27.8728 24.75 29C24.75 30.1272 25.1978 31.2082 25.9948 32.0052C26.7919 32.8022 27.8729 33.25 29 33.25Z" fill="#003B8C"/>
</svg>
