<svg width="57" height="58" viewBox="0 0 57 58" fill="none" xmlns="http://www.w3.org/2000/svg">
<rect width="57" height="58" rx="16" fill="#F5F7FF"/>
<path d="M32.3867 14.3109C31.623 14.6496 31.125 15.4133 31.125 16.25V20.5H23.6875C17.2328 20.5 12 25.7328 12 32.1875C12 39.7113 17.4121 43.0715 18.6539 43.7488C18.8199 43.8418 19.0059 43.875 19.1918 43.875C19.9156 43.875 20.5 43.284 20.5 42.5668C20.5 42.0687 20.2145 41.6105 19.8492 41.2718C19.225 40.6808 18.375 39.5187 18.375 37.5C18.375 33.9804 21.2305 31.125 24.75 31.125H31.125V35.375C31.125 36.2117 31.6164 36.9754 32.3867 37.314C33.157 37.6527 34.0469 37.5132 34.6711 36.9554L45.2961 27.3929C45.741 26.9879 46 26.4168 46 25.8125C46 25.2082 45.7477 24.6371 45.2961 24.232L34.6711 14.6695C34.3666 14.3938 33.9882 14.2129 33.5824 14.1492C33.1766 14.0855 32.761 14.1417 32.3867 14.3109Z" fill="#003B8C"/>
</svg>
